<svg width="42" height="42" viewBox="0 0 42 42" fill="none" xmlns="http://www.w3.org/2000/svg">
<path d="M5.25 41.25C4.0125 41.25 2.95275 40.809 2.07075 39.927C1.18875 39.045 0.748504 37.986 0.750004 36.75V5.25C0.750004 4.0125 1.191 2.95275 2.073 2.07075C2.955 1.18875 4.014 0.748504 5.25 0.750004H36.75C37.9875 0.750004 39.0473 1.191 39.9293 2.073C40.8113 2.955 41.2515 4.014 41.25 5.25V36.75C41.25 37.9875 40.809 39.0473 39.927 39.9293C39.045 40.8113 37.986 41.2515 36.75 41.25H5.25ZM7.5 32.25H34.5L26.0625 21L19.3125 30L14.25 23.25L7.5 32.25ZM13.125 16.5C14.0625 16.5 14.8598 16.1715 15.5168 15.5145C16.1738 14.8575 16.5015 14.061 16.5 13.125C16.5 12.1875 16.1715 11.3903 15.5145 10.7333C14.8575 10.0763 14.061 9.7485 13.125 9.75C12.1875 9.75 11.3903 10.0785 10.7333 10.7355C10.0763 11.3925 9.7485 12.189 9.75 13.125C9.75 14.0625 10.0785 14.8598 10.7355 15.5168C11.3925 16.1738 12.189 16.5015 13.125 16.5Z" fill="#444444"/>
</svg>
